<?xml version="1.0" standalone="no"?><!DOCTYPE svg PUBLIC "-//W3C//DTD SVG 1.1//EN" "http://www.w3.org/Graphics/SVG/1.1/DTD/svg11.dtd"><svg t="1498284620825" class="icon" style="" viewBox="0 0 1024 1024" version="1.1" xmlns="http://www.w3.org/2000/svg" p-id="6237" xmlns:xlink="http://www.w3.org/1999/xlink" width="200" height="200"><defs><style type="text/css"></style></defs><path d="M1019.30752 344.012008c-63.2393-89.925079-126.480646-179.889043-189.725062-269.833565-5.632277-8.894577-15.85306-15.20633-26.348088-15.20633l-307.738873 0-19.116383 0L196.690086 58.972113c-9.405207 0-16.522302 3.52529-21.412682 8.846482-0.163729 0.168846-0.326435 0.335644-0.490164 0.509606-0.059352 0.074701-0.12382 0.143263-0.187265 0.217964-1.476631 1.599428-2.871397 3.406586-4.133134 5.460362C115.051741 164.004261 59.657107 254.027577 4.24303 344.012008c-7.16212 11.641131-4.637624 25.411763 3.261277 34.772968 0.469698 0.697895 0.960885 1.38658 1.484817 2.053776C165.861964 581.492724 322.719454 782.200932 479.581038 982.848765c6.860245 8.78099 15.216563 11.543917 23.125697 10.31595 6.860245 0.010233 13.870916-2.99931 19.838837-10.31595 163.990958-200.647833 328.009546-401.356041 492.004597-602.010013 0.846274-1.033539 1.604544-2.109034 2.311649-3.207042C1024.459866 368.231619 1027.024272 354.99106 1019.30752 344.012008L1019.30752 344.012008zM934.669864 328.959174 747.672936 328.959174c21.363564-58.275241 42.720987-116.555599 64.085574-174.830841C852.72862 212.398458 893.693614 270.679839 934.669864 328.959174L934.669864 328.959174zM501.029536 134.007063c44.50461 64.97278 89.008196 129.965004 133.512806 194.95211l-271.124977 0C409.283996 263.972067 455.14858 198.989053 501.029536 134.007063L501.029536 134.007063zM660.872011 389.724119C607.85861 534.339798 554.840093 678.955476 501.836925 823.591621 450.287875 678.505221 398.546444 533.790282 344.889383 389.724119L660.872011 389.724119 660.872011 389.724119zM691.818837 305.303404c-42.366923-61.84965-84.727707-123.707486-127.08849-185.567369l195.10356 0C737.164605 181.590801 714.488139 243.449661 691.818837 305.303404L691.818837 305.303404zM310.661838 298.695916c-22.681582-59.785641-45.762253-119.441323-69.358671-178.958858l195.669448 0C394.869705 179.38353 352.764748 239.039211 310.661838 298.695916L310.661838 298.695916zM190.932966 156.657946c22.586414 57.310264 44.703131 114.748441 66.466808 172.296111L84.862162 328.954057C120.223531 271.520997 155.58183 214.08589 190.932966 156.657946L190.932966 156.657946zM280.245084 389.724119c55.512315 148.604526 108.930945 297.910017 162.123424 447.594131-116.629277-149.195997-233.253438-298.395064-349.863273-447.594131L280.245084 389.724119 280.245084 389.724119zM725.39863 389.724119l203.815989 0C806.007529 540.473495 682.813743 691.216731 559.620979 841.955874 614.872351 691.211615 670.137025 540.468378 725.39863 389.724119L725.39863 389.724119zM725.39863 389.724119" fill="#ff0000" p-id="6238"></path></svg>